<svg id="visual" viewBox="0 0 960 540" width="960" height="540" xmlns="http://www.w3.org/2000/svg" xmlns:xlink="http://www.w3.org/1999/xlink" version="1.1"><rect x="0" y="0" width="960" height="540" fill="#000080"/><defs><linearGradient id="grad1_0" x1="43.8%" y1="100%" x2="100%" y2="0%"><stop offset="14.444444444444446%" stop-color="#2eb35a" stop-opacity="1"/><stop offset="85.55555555555554%" stop-color="#2eb35a" stop-opacity="1"/></linearGradient></defs><defs><linearGradient id="grad1_1" x1="43.8%" y1="100%" x2="100%" y2="0%"><stop offset="14.444444444444446%" stop-color="#2eb35a" stop-opacity="1"/><stop offset="85.55555555555554%" stop-color="#000080" stop-opacity="1"/></linearGradient></defs><defs><linearGradient id="grad2_0" x1="0%" y1="100%" x2="56.3%" y2="0%"><stop offset="14.444444444444446%" stop-color="#2eb35a" stop-opacity="1"/><stop offset="85.55555555555554%" stop-color="#2eb35a" stop-opacity="1"/></linearGradient></defs><defs><linearGradient id="grad2_1" x1="0%" y1="100%" x2="56.3%" y2="0%"><stop offset="14.444444444444446%" stop-color="#000080" stop-opacity="1"/><stop offset="85.55555555555554%" stop-color="#2eb35a" stop-opacity="1"/></linearGradient></defs><g transform="translate(960, 540)"><path d="M-297 0C-298.7 -28 -300.5 -56 -286.9 -76.9C-273.3 -97.8 -244.3 -111.6 -229.5 -132.5C-214.7 -153.4 -214 -181.6 -200.8 -200.8C-187.7 -220.1 -162.1 -230.5 -139 -240.8C-115.9 -251 -95.2 -261.1 -72.5 -270.5C-49.7 -279.8 -24.9 -288.4 0 -297L0 0Z" fill="#0072b1"/><path d="M-148.5 0C-149.4 -14 -150.2 -28 -143.4 -38.4C-136.6 -48.9 -122.2 -55.8 -114.7 -66.3C-107.3 -76.7 -107 -90.8 -100.4 -100.4C-93.8 -110 -81.1 -115.2 -69.5 -120.4C-57.9 -125.5 -47.6 -130.6 -36.2 -135.2C-24.9 -139.9 -12.4 -144.2 0 -148.5L0 0Z" fill="#2eb35a"/></g><g transform="translate(0, 0)"><path d="M297 0C282.9 22.5 268.7 45.1 264.7 70.9C260.6 96.7 266.7 125.8 257.2 148.5C247.7 171.2 222.7 187.4 199.4 199.4C176.1 211.4 154.7 219.3 135 233.8C115.3 248.3 97.5 269.5 75.3 281.1C53.1 292.7 26.6 294.9 0 297L0 0Z" fill="#0072b1"/><path d="M148.5 0C141.4 11.3 134.4 22.5 132.3 35.5C130.3 48.4 133.3 62.9 128.6 74.2C123.9 85.6 111.3 93.7 99.7 99.7C88.1 105.7 77.3 109.7 67.5 116.9C57.7 124.2 48.8 134.7 37.7 140.5C26.6 146.4 13.3 147.4 0 148.5L0 0Z" fill="#2eb35a"/></g></svg>