<svg id="visual" viewBox="0 0 960 540" width="960" height="540" xmlns="http://www.w3.org/2000/svg" xmlns:xlink="http://www.w3.org/1999/xlink" version="1.1"><rect x="0" y="0" width="960" height="540" fill="#000080"></rect><path d="M0 356L22.8 361.3C45.7 366.7 91.3 377.3 137 381.8C182.7 386.3 228.3 384.7 274 380.7C319.7 376.7 365.3 370.3 411.2 371.8C457 373.3 503 382.7 548.8 386.7C594.7 390.7 640.3 389.3 686 386C731.7 382.7 777.3 377.3 823 373.2C868.7 369 914.3 366 937.2 364.5L960 363L960 541L937.2 541C914.3 541 868.7 541 823 541C777.3 541 731.7 541 686 541C640.3 541 594.7 541 548.8 541C503 541 457 541 411.2 541C365.3 541 319.7 541 274 541C228.3 541 182.7 541 137 541C91.3 541 45.7 541 22.8 541L0 541Z" fill="#c62368"></path><path d="M0 384L22.8 384.7C45.7 385.3 91.3 386.7 137 393.5C182.7 400.3 228.3 412.7 274 416.7C319.7 420.7 365.3 416.3 411.2 410.3C457 404.3 503 396.7 548.8 395.8C594.7 395 640.3 401 686 402.5C731.7 404 777.3 401 823 398.7C868.7 396.3 914.3 394.7 937.2 393.8L960 393L960 541L937.2 541C914.3 541 868.7 541 823 541C777.3 541 731.7 541 686 541C640.3 541 594.7 541 548.8 541C503 541 457 541 411.2 541C365.3 541 319.7 541 274 541C228.3 541 182.7 541 137 541C91.3 541 45.7 541 22.8 541L0 541Z" fill="#a51756"></path><path d="M0 421L22.8 424.2C45.7 427.3 91.3 433.7 137 438.3C182.7 443 228.3 446 274 445.8C319.7 445.7 365.3 442.3 411.2 440.3C457 438.3 503 437.7 548.8 438.8C594.7 440 640.3 443 686 442.8C731.7 442.7 777.3 439.3 823 436.5C868.7 433.7 914.3 431.3 937.2 430.2L960 429L960 541L937.2 541C914.3 541 868.7 541 823 541C777.3 541 731.7 541 686 541C640.3 541 594.7 541 548.8 541C503 541 457 541 411.2 541C365.3 541 319.7 541 274 541C228.3 541 182.7 541 137 541C91.3 541 45.7 541 22.8 541L0 541Z" fill="#850a44"></path><path d="M0 467L22.8 468C45.7 469 91.3 471 137 474.3C182.7 477.7 228.3 482.3 274 481.2C319.7 480 365.3 473 411.2 473C457 473 503 480 548.8 479.7C594.7 479.3 640.3 471.7 686 468.3C731.7 465 777.3 466 823 467.3C868.7 468.7 914.3 470.3 937.2 471.2L960 472L960 541L937.2 541C914.3 541 868.7 541 823 541C777.3 541 731.7 541 686 541C640.3 541 594.7 541 548.8 541C503 541 457 541 411.2 541C365.3 541 319.7 541 274 541C228.3 541 182.7 541 137 541C91.3 541 45.7 541 22.8 541L0 541Z" fill="#660033"></path></svg>