<svg id="visual" viewBox="0 0 960 540" width="960" height="540" xmlns="http://www.w3.org/2000/svg" xmlns:xlink="http://www.w3.org/1999/xlink" version="1.1"><g stroke-width="1" stroke-linejoin="bevel"><path d="M462 303L347 278L469 374Z" fill="#2eb35a" stroke="#2eb35a"></path><path d="M347 278L348 429L469 374Z" fill="#0084ba" stroke="#0084ba"></path><path d="M137 540L338 540L348 429Z" fill="#004da6" stroke="#004da6"></path><path d="M348 429L480 540L469 374Z" fill="#002390" stroke="#002390"></path><path d="M338 540L480 540L348 429Z" fill="#0084ba" stroke="#0084ba"></path><path d="M470 97L289 154L347 278Z" fill="#00a0a0" stroke="#00a0a0"></path><path d="M347 278L161 301L348 429Z" fill="#004da6" stroke="#004da6"></path><path d="M480 540L608 396L469 374Z" fill="#00ab80" stroke="#00ab80"></path><path d="M469 374L608 396L462 303Z" fill="#00a0a0" stroke="#00a0a0"></path><path d="M462 303L470 97L347 278Z" fill="#0093b4" stroke="#0093b4"></path><path d="M289 154L161 301L347 278Z" fill="#0084ba" stroke="#0084ba"></path><path d="M608 396L618 251L462 303Z" fill="#000080" stroke="#000080"></path><path d="M618 251L470 97L462 303Z" fill="#00399d" stroke="#00399d"></path><path d="M161 301L130 384L348 429Z" fill="#0060ac" stroke="#0060ac"></path><path d="M480 540L648 540L608 396Z" fill="#0093b4" stroke="#0093b4"></path><path d="M608 396L779 270L618 251Z" fill="#00a0a0" stroke="#00a0a0"></path><path d="M130 384L137 540L348 429Z" fill="#000080" stroke="#000080"></path><path d="M289 154L122 133L161 301Z" fill="#0060ac" stroke="#0060ac"></path><path d="M0 263L0 383L130 384Z" fill="#00399d" stroke="#00399d"></path><path d="M187 0L122 133L289 154Z" fill="#00399d" stroke="#00399d"></path><path d="M781 123L643 105L618 251Z" fill="#004da6" stroke="#004da6"></path><path d="M618 251L643 105L470 97Z" fill="#004da6" stroke="#004da6"></path><path d="M626 0L449 0L470 97Z" fill="#2eb35a" stroke="#2eb35a"></path><path d="M470 97L335 0L289 154Z" fill="#004da6" stroke="#004da6"></path><path d="M449 0L335 0L470 97Z" fill="#0093b4" stroke="#0093b4"></path><path d="M811 422L779 270L608 396Z" fill="#00ab80" stroke="#00ab80"></path><path d="M0 263L130 384L161 301Z" fill="#000080" stroke="#000080"></path><path d="M130 384L0 540L137 540Z" fill="#00a0a0" stroke="#00a0a0"></path><path d="M122 133L0 263L161 301Z" fill="#00399d" stroke="#00399d"></path><path d="M335 0L187 0L289 154Z" fill="#00ab80" stroke="#00ab80"></path><path d="M122 133L0 125L0 263Z" fill="#0072b1" stroke="#0072b1"></path><path d="M809 0L626 0L643 105Z" fill="#00a0a0" stroke="#00a0a0"></path><path d="M643 105L626 0L470 97Z" fill="#000080" stroke="#000080"></path><path d="M648 540L811 422L608 396Z" fill="#002390" stroke="#002390"></path><path d="M0 383L0 540L130 384Z" fill="#002390" stroke="#002390"></path><path d="M809 0L781 123L960 100Z" fill="#004da6" stroke="#004da6"></path><path d="M779 270L781 123L618 251Z" fill="#0072b1" stroke="#0072b1"></path><path d="M0 0L0 125L122 133Z" fill="#0060ac" stroke="#0060ac"></path><path d="M648 540L821 540L811 422Z" fill="#000080" stroke="#000080"></path><path d="M187 0L0 0L122 133Z" fill="#002390" stroke="#002390"></path><path d="M960 266L781 123L779 270Z" fill="#00ab80" stroke="#00ab80"></path><path d="M781 123L809 0L643 105Z" fill="#2eb35a" stroke="#2eb35a"></path><path d="M960 266L779 270L811 422Z" fill="#00ab80" stroke="#00ab80"></path><path d="M960 540L960 400L811 422Z" fill="#000080" stroke="#000080"></path><path d="M960 400L960 266L811 422Z" fill="#002390" stroke="#002390"></path><path d="M821 540L960 540L811 422Z" fill="#0060ac" stroke="#0060ac"></path><path d="M960 266L960 100L781 123Z" fill="#00399d" stroke="#00399d"></path><path d="M960 100L960 0L809 0Z" fill="#0060ac" stroke="#0060ac"></path></g></svg>