<svg id="visual" viewBox="0 0 900 600" width="900" height="600" xmlns="http://www.w3.org/2000/svg" xmlns:xlink="http://www.w3.org/1999/xlink" version="1.1"><path d="M0 91L16.7 89C33.3 87 66.7 83 100 80C133.3 77 166.7 75 200 78C233.3 81 266.7 89 300 92C333.3 95 366.7 93 400 88C433.3 83 466.7 75 500 76C533.3 77 566.7 87 600 90C633.3 93 666.7 89 700 87C733.3 85 766.7 85 800 85C833.3 85 866.7 85 883.3 85L900 85L900 0L883.3 0C866.7 0 833.3 0 800 0C766.7 0 733.3 0 700 0C666.7 0 633.3 0 600 0C566.7 0 533.3 0 500 0C466.7 0 433.3 0 400 0C366.7 0 333.3 0 300 0C266.7 0 233.3 0 200 0C166.7 0 133.3 0 100 0C66.7 0 33.3 0 16.7 0L0 0Z" fill="#4a0828"></path><path d="M0 181L16.7 182C33.3 183 66.7 185 100 188C133.3 191 166.7 195 200 195C233.3 195 266.7 191 300 192C333.3 193 366.7 199 400 201C433.3 203 466.7 201 500 203C533.3 205 566.7 211 600 213C633.3 215 666.7 213 700 209C733.3 205 766.7 199 800 198C833.3 197 866.7 201 883.3 203L900 205L900 83L883.3 83C866.7 83 833.3 83 800 83C766.7 83 733.3 83 700 85C666.7 87 633.3 91 600 88C566.7 85 533.3 75 500 74C466.7 73 433.3 81 400 86C366.7 91 333.3 93 300 90C266.7 87 233.3 79 200 76C166.7 73 133.3 75 100 78C66.7 81 33.3 85 16.7 87L0 89Z" fill="#72053b"></path><path d="M0 325L16.7 328C33.3 331 66.7 337 100 344C133.3 351 166.7 359 200 355C233.3 351 266.7 335 300 338C333.3 341 366.7 363 400 366C433.3 369 466.7 353 500 351C533.3 349 566.7 361 600 367C633.3 373 666.7 373 700 364C733.3 355 766.7 337 800 332C833.3 327 866.7 335 883.3 339L900 343L900 203L883.3 201C866.7 199 833.3 195 800 196C766.7 197 733.3 203 700 207C666.7 211 633.3 213 600 211C566.7 209 533.3 203 500 201C466.7 199 433.3 201 400 199C366.7 197 333.3 191 300 190C266.7 189 233.3 193 200 193C166.7 193 133.3 189 100 186C66.7 183 33.3 181 16.7 180L0 179Z" fill="#971a56"></path><path d="M0 523L16.7 523C33.3 523 66.7 523 100 522C133.3 521 166.7 519 200 519C233.3 519 266.7 521 300 525C333.3 529 366.7 535 400 537C433.3 539 466.7 537 500 535C533.3 533 566.7 531 600 532C633.3 533 666.7 537 700 535C733.3 533 766.7 525 800 522C833.3 519 866.7 521 883.3 522L900 523L900 341L883.3 337C866.7 333 833.3 325 800 330C766.7 335 733.3 353 700 362C666.7 371 633.3 371 600 365C566.7 359 533.3 347 500 349C466.7 351 433.3 367 400 364C366.7 361 333.3 339 300 336C266.7 333 233.3 349 200 353C166.7 357 133.3 349 100 342C66.7 335 33.3 329 16.7 326L0 323Z" fill="#72053b"></path><path d="M0 601L16.7 601C33.3 601 66.7 601 100 601C133.3 601 166.7 601 200 601C233.3 601 266.7 601 300 601C333.3 601 366.7 601 400 601C433.3 601 466.7 601 500 601C533.3 601 566.7 601 600 601C633.3 601 666.7 601 700 601C733.3 601 766.7 601 800 601C833.3 601 866.7 601 883.3 601L900 601L900 521L883.3 520C866.7 519 833.3 517 800 520C766.7 523 733.3 531 700 533C666.7 535 633.3 531 600 530C566.7 529 533.3 531 500 533C466.7 535 433.3 537 400 535C366.7 533 333.3 527 300 523C266.7 519 233.3 517 200 517C166.7 517 133.3 519 100 520C66.7 521 33.3 521 16.7 521L0 521Z" fill="#4a0828"></path></svg>