<svg id="visual" viewBox="0 0 960 540" width="960" height="540" xmlns="http://www.w3.org/2000/svg" xmlns:xlink="http://www.w3.org/1999/xlink" version="1.1"><path d="M0 71L32 67.5C64 64 128 57 192 57C256 57 320 64 384 64C448 64 512 57 576 58.8C640 60.7 704 71.3 768 69.5C832 67.7 896 53.3 928 46.2L960 39L960 0L928 0C896 0 832 0 768 0C704 0 640 0 576 0C512 0 448 0 384 0C320 0 256 0 192 0C128 0 64 0 32 0L0 0Z" fill="#660033"/><path d="M0 266L32 252.5C64 239 128 212 192 222.7C256 233.3 320 281.7 384 278.8C448 276 512 222 576 196C640 170 704 172 768 168.5C832 165 896 156 928 151.5L960 147L960 37L928 44.2C896 51.3 832 65.7 768 67.5C704 69.3 640 58.7 576 56.8C512 55 448 62 384 62C320 62 256 55 192 55C128 55 64 62 32 65.5L0 69Z" fill="#640042"/><path d="M0 363L32 370.2C64 377.3 128 391.7 192 401.5C256 411.3 320 416.7 384 409.5C448 402.3 512 382.7 576 371C640 359.3 704 355.7 768 352C832 348.3 896 344.7 928 342.8L960 341L960 145L928 149.5C896 154 832 163 768 166.5C704 170 640 168 576 194C512 220 448 274 384 276.8C320 279.7 256 231.3 192 220.7C128 210 64 237 32 250.5L0 264Z" fill="#5d0052"/><path d="M0 471L32 476.3C64 481.7 128 492.3 192 493.2C256 494 320 485 384 488.7C448 492.3 512 508.7 576 510.5C640 512.3 704 499.7 768 488C832 476.3 896 465.7 928 460.3L960 455L960 339L928 340.8C896 342.7 832 346.3 768 350C704 353.7 640 357.3 576 369C512 380.7 448 400.3 384 407.5C320 414.7 256 409.3 192 399.5C128 389.7 64 375.3 32 368.2L0 361Z" fill="#4b0067"/><path d="M0 541L32 541C64 541 128 541 192 541C256 541 320 541 384 541C448 541 512 541 576 541C640 541 704 541 768 541C832 541 896 541 928 541L960 541L960 453L928 458.3C896 463.7 832 474.3 768 486C704 497.7 640 510.3 576 508.5C512 506.7 448 490.3 384 486.7C320 483 256 492 192 491.2C128 490.3 64 479.7 32 474.3L0 469Z" fill="#000080"/></svg>