<svg id="visual" viewBox="0 0 960 540" width="960" height="540" xmlns="http://www.w3.org/2000/svg" xmlns:xlink="http://www.w3.org/1999/xlink" version="1.1"><rect x="0" y="0" width="960" height="540" fill="#660033"/><defs><linearGradient id="grad1_0" x1="43.8%" y1="100%" x2="100%" y2="0%"><stop offset="14.444444444444446%" stop-color="#660033" stop-opacity="1"/><stop offset="85.55555555555554%" stop-color="#660033" stop-opacity="1"/></linearGradient></defs><defs><linearGradient id="grad2_0" x1="0%" y1="100%" x2="56.3%" y2="0%"><stop offset="14.444444444444446%" stop-color="#660033" stop-opacity="1"/><stop offset="85.55555555555554%" stop-color="#660033" stop-opacity="1"/></linearGradient></defs><g transform="translate(960, 540)"><path d="M-216 0C-211.6 -39.9 -207.1 -79.8 -187.1 -108C-167 -136.2 -131.3 -152.8 -97.5 -168.9C-63.7 -184.9 -31.9 -200.5 0 -216L0 0Z" fill="#3eb"/></g><g transform="translate(0, 0)"><path d="M216 0C200.5 31.9 184.9 63.7 168.9 97.5C152.8 131.3 136.2 167 108 187.1C79.8 207.1 39.9 211.6 0 216L0 0Z" fill="#3eb"/></g></svg>